# Blender v2.69 (sub 0) OBJ File: 'beam.blend'
# www.blender.org
mtllib beam.mtl
o Cylinder
v 0.000000 0.040001 -1.000000
v 0.000000 0.039999 1.000000
v 0.007804 0.039232 -1.000000
v 0.007804 0.039231 1.000000
v 0.015307 0.036956 -1.000000
v 0.015307 0.036955 1.000000
v 0.022223 0.033259 -1.000000
v 0.022223 0.033258 1.000000
v 0.028284 0.028285 -1.000000
v 0.028284 0.028284 1.000000
v 0.033259 0.022223 -1.000000
v 0.033259 0.022222 1.000000
v 0.036955 0.015308 -1.000000
v 0.036955 0.015307 1.000000
v 0.039231 0.007804 -1.000000
v 0.039231 0.007803 1.000000
v 0.040000 0.000001 -1.000000
v 0.040000 -0.000001 1.000000
v 0.039231 -0.007803 -1.000000
v 0.039231 -0.007804 1.000000
v 0.036955 -0.015307 -1.000000
v 0.036955 -0.015308 1.000000
v 0.033259 -0.022222 -1.000000
v 0.033259 -0.022223 1.000000
v 0.028284 -0.028284 -1.000000
v 0.028284 -0.028285 1.000000
v 0.022223 -0.033258 -1.000000
v 0.022223 -0.033259 1.000000
v 0.015307 -0.036955 -1.000000
v 0.015307 -0.036956 1.000000
v 0.007804 -0.039231 -1.000000
v 0.007804 -0.039232 1.000000
v -0.000000 -0.039999 -1.000000
v -0.000000 -0.040001 1.000000
v -0.007804 -0.039231 -1.000000
v -0.007804 -0.039232 1.000000
v -0.015307 -0.036955 -1.000000
v -0.015307 -0.036956 1.000000
v -0.022223 -0.033258 -1.000000
v -0.022223 -0.033259 1.000000
v -0.028284 -0.028284 -1.000000
v -0.028284 -0.028285 1.000000
v -0.033259 -0.022222 -1.000000
v -0.033259 -0.022223 1.000000
v -0.036955 -0.015307 -1.000000
v -0.036955 -0.015308 1.000000
v -0.039231 -0.007803 -1.000000
v -0.039231 -0.007804 1.000000
v -0.040000 0.000001 -1.000000
v -0.040000 -0.000001 1.000000
v -0.039231 0.007804 -1.000000
v -0.039231 0.007803 1.000000
v -0.036955 0.015308 -1.000000
v -0.036955 0.015307 1.000000
v -0.033259 0.022223 -1.000000
v -0.033259 0.022222 1.000000
v -0.028284 0.028285 -1.000000
v -0.028284 0.028284 1.000000
v -0.022223 0.033259 -1.000000
v -0.022223 0.033258 1.000000
v -0.015307 0.036956 -1.000000
v -0.015307 0.036955 1.000000
v -0.007804 0.039232 -1.000000
v -0.007804 0.039231 1.000000
vn 0.098017 0.995185 0.000001
vn 0.290285 0.956940 0.000001
vn 0.471396 0.881921 0.000001
vn 0.634394 0.773010 0.000000
vn 0.773010 0.634393 0.000000
vn 0.881922 0.471396 0.000000
vn 0.956940 0.290284 0.000000
vn 0.995185 0.098018 0.000000
vn 0.995185 -0.098017 -0.000000
vn 0.956940 -0.290284 -0.000000
vn 0.881921 -0.471396 -0.000000
vn 0.773010 -0.634393 -0.000000
vn 0.634393 -0.773011 -0.000000
vn 0.471397 -0.881921 -0.000001
vn 0.290284 -0.956941 -0.000001
vn 0.098017 -0.995185 -0.000001
vn -0.098017 -0.995185 -0.000001
vn -0.290286 -0.956940 -0.000001
vn -0.471397 -0.881921 -0.000001
vn -0.634393 -0.773010 -0.000000
vn -0.773011 -0.634393 -0.000000
vn -0.881922 -0.471396 -0.000000
vn -0.956940 -0.290284 -0.000000
vn -0.995185 -0.098016 -0.000000
vn -0.995185 0.098019 0.000000
vn -0.956940 0.290285 0.000000
vn -0.881921 0.471397 0.000000
vn -0.773010 0.634394 0.000000
vn -0.634393 0.773011 0.000000
vn -0.471396 0.881922 0.000001
vn 0.000000 0.000000 1.000000
vn -0.098017 0.995185 0.000001
vn -0.290283 0.956941 0.000001
vn 0.000000 0.000000 -1.000000
vn 0.634393 0.773010 0.000000
vn 0.881921 0.471397 0.000000
vn 0.956940 0.290285 0.000000
vn 0.995185 0.098017 0.000000
vn 0.956940 -0.290285 -0.000000
vn 0.881921 -0.471397 -0.000000
vn 0.634394 -0.773010 -0.000000
vn -0.634394 -0.773010 -0.000000
vn -0.881921 -0.471396 -0.000000
vn -0.956941 -0.290283 -0.000000
vn -0.995185 -0.098017 -0.000000
vn -0.995185 0.098018 0.000000
vn -0.956940 0.290286 0.000000
vn -0.773009 0.634395 0.000000
vn -0.634392 0.773011 0.000000
vn -0.471395 0.881922 0.000001
vn 0.000018 0.000000 1.000000
vn -0.000016 0.000000 1.000000
vn -0.000078 0.000000 1.000000
vn 0.000006 0.000000 1.000000
vn 0.000078 0.000000 1.000000
vn 0.000005 0.000000 1.000000
vn 0.000026 0.000000 -1.000000
vn -0.000022 0.000000 -1.000000
vn 0.000002 0.000000 -1.000000
vn 0.000034 0.000000 -1.000000
vn -0.000033 0.000000 -1.000000
vn 0.000027 0.000000 -1.000000
usemtl None
s off
f 1//1 2//1 3//1
f 3//2 4//2 5//2
f 5//3 6//3 7//3
f 7//4 8//4 9//4
f 9//5 10//5 11//5
f 11//6 12//6 13//6
f 13//7 14//7 15//7
f 15//8 16//8 17//8
f 17//9 18//9 19//9
f 19//10 20//10 21//10
f 21//11 22//11 23//11
f 23//12 24//12 25//12
f 25//13 26//13 27//13
f 27//14 28//14 29//14
f 29//15 30//15 31//15
f 31//16 32//16 33//16
f 33//17 34//17 35//17
f 35//18 36//18 37//18
f 37//19 38//19 39//19
f 39//20 40//20 41//20
f 41//21 42//21 43//21
f 43//22 44//22 45//22
f 45//23 46//23 47//23
f 47//24 48//24 49//24
f 49//25 50//25 51//25
f 51//26 52//26 53//26
f 53//27 54//27 55//27
f 55//28 56//28 57//28
f 57//29 58//29 59//29
f 59//30 60//30 61//30
f 4//31 2//31 6//31
f 63//32 64//32 1//32
f 61//33 62//33 63//33
f 1//34 3//34 63//34
f 2//1 4//1 3//1
f 4//2 6//2 5//2
f 6//3 8//3 7//3
f 8//35 10//35 9//35
f 10//5 12//5 11//5
f 12//36 14//36 13//36
f 14//37 16//37 15//37
f 16//38 18//38 17//38
f 18//9 20//9 19//9
f 20//39 22//39 21//39
f 22//40 24//40 23//40
f 24//12 26//12 25//12
f 26//41 28//41 27//41
f 28//14 30//14 29//14
f 30//15 32//15 31//15
f 32//16 34//16 33//16
f 34//17 36//17 35//17
f 36//18 38//18 37//18
f 38//19 40//19 39//19
f 40//42 42//42 41//42
f 42//21 44//21 43//21
f 44//43 46//43 45//43
f 46//44 48//44 47//44
f 48//45 50//45 49//45
f 50//46 52//46 51//46
f 52//47 54//47 53//47
f 54//27 56//27 55//27
f 56//48 58//48 57//48
f 58//49 60//49 59//49
f 60//50 62//50 61//50
f 2//31 64//31 6//31
f 64//31 62//31 6//31
f 62//31 60//31 6//31
f 60//31 58//31 6//31
f 58//31 56//31 6//31
f 56//31 54//31 6//31
f 54//31 52//31 6//31
f 52//51 50//51 6//51
f 50//52 48//52 6//52
f 48//31 46//31 6//31
f 46//31 44//31 6//31
f 18//53 22//53 20//53
f 18//31 24//31 22//31
f 44//31 42//31 40//31
f 6//54 44//54 40//54
f 8//31 6//31 10//31
f 6//31 40//31 10//31
f 32//31 36//31 34//31
f 38//31 36//31 32//31
f 24//31 28//31 26//31
f 18//31 28//31 24//31
f 14//55 18//55 16//55
f 14//31 28//31 18//31
f 14//31 30//31 28//31
f 14//31 32//31 30//31
f 38//31 32//31 14//31
f 10//31 14//31 12//31
f 40//31 38//31 10//31
f 38//56 14//56 10//56
f 64//32 2//32 1//32
f 62//33 64//33 63//33
f 3//34 5//34 63//34
f 5//34 7//34 63//34
f 7//34 9//34 63//34
f 9//34 11//34 63//34
f 11//34 13//34 63//34
f 13//57 15//57 63//57
f 15//58 17//58 63//58
f 17//34 19//34 63//34
f 19//34 21//34 63//34
f 21//34 23//34 63//34
f 23//34 25//34 63//34
f 35//34 31//34 33//34
f 37//34 31//34 35//34
f 43//34 39//34 41//34
f 43//34 37//34 39//34
f 43//34 31//34 37//34
f 43//34 29//34 31//34
f 27//34 29//34 43//34
f 25//34 27//34 43//34
f 63//34 25//34 61//34
f 25//59 43//59 61//59
f 43//34 45//34 61//34
f 45//34 47//34 61//34
f 47//60 49//60 61//60
f 49//34 51//34 61//34
f 51//61 53//61 61//61
f 53//62 55//62 61//62
f 55//34 57//34 61//34
f 57//34 59//34 61//34
