# Blender v2.69 (sub 0) OBJ File: 'grunge_frame.blend'
# www.blender.org
mtllib grunge_frame.mtl
o group_0.001_ID11
v -0.525000 0.400075 0.030000
v -0.525000 -0.400075 -0.000000
v -0.525000 0.400075 0.000000
v -0.525000 -0.400075 0.030000
v -0.525000 0.400075 0.030000
v 0.525000 0.400075 0.000000
v 0.525000 0.400075 0.030000
v -0.525000 0.400075 0.000000
v 0.525000 0.400075 0.030000
v 0.500000 0.375075 0.030000
v -0.525000 0.400075 0.030000
v 0.525000 -0.400075 0.030000
v 0.500000 -0.375075 0.030000
v -0.500000 -0.375075 0.030000
v -0.500000 0.375075 0.030000
v -0.525000 -0.400075 0.030000
v -0.525000 -0.400075 -0.000000
v 0.525000 -0.400075 0.030000
v 0.525000 -0.400075 -0.000000
v -0.525000 -0.400075 0.030000
v -0.525000 0.400075 0.000000
v -0.500000 0.375075 0.000000
v 0.525000 0.400075 0.000000
v -0.525000 -0.400075 -0.000000
v -0.500000 -0.375075 -0.000000
v 0.500000 -0.375075 -0.000000
v 0.500000 0.375075 0.000000
v 0.525000 -0.400075 -0.000000
v 0.525000 -0.400075 0.030000
v 0.525000 0.400075 0.000000
v 0.525000 -0.400075 -0.000000
v 0.525000 0.375075 0.030000
vt 0.700038 0.515000
vt 0.299962 0.500000
vt 0.700038 0.500000
vt 0.299962 0.515000
vt 0.237500 0.515000
vt 0.762500 0.500000
vt 0.762500 0.515000
vt 0.237500 0.500000
vt 0.762500 0.700038
vt 0.750000 0.687538
vt 0.237500 0.700038
vt 0.762500 0.299962
vt 0.750000 0.312462
vt 0.250000 0.312462
vt 0.250000 0.687538
vt 0.237500 0.299962
vt 0.687538 0.515000
vn 1.000000 -0.000000 0.000000
vn 0.000000 -1.000000 0.000000
vn 0.000000 0.000000 -1.000000
vn 0.000000 1.000000 0.000000
vn 0.000000 -0.000000 1.000000
vn -1.000000 0.000000 0.000000
usemtl Metal_Seamed
s off
f 1/1/1 2/2/1 3/3/1
f 2/2/1 1/1/1 4/4/1
f 5/5/2 6/6/2 7/7/2
f 6/6/2 5/5/2 8/8/2
f 9/9/3 10/10/3 11/11/3
f 10/10/3 9/9/3 12/12/3
f 10/10/3 12/12/3 13/13/3
f 13/13/3 12/12/3 14/14/3
f 11/11/3 15/15/3 16/16/3
f 15/15/3 11/11/3 10/10/3
f 16/16/3 15/15/3 14/14/3
f 16/16/3 14/14/3 12/12/3
f 17/8/4 18/7/4 19/6/4
f 18/7/4 17/8/4 20/5/4
f 21/11/5 22/15/5 23/9/5
f 22/15/5 21/11/5 24/16/5
f 22/15/5 24/16/5 25/14/5
f 25/14/5 24/16/5 26/13/5
f 23/9/5 27/10/5 28/12/5
f 27/10/5 23/9/5 22/15/5
f 28/12/5 27/10/5 26/13/5
f 28/12/5 26/13/5 24/16/5
f 29/4/6 30/3/6 31/2/6
f 30/3/6 29/4/6 32/17/6
o group_0_ID3
v -0.500000 -0.375075 0.030000
v 0.500000 -0.375075 -0.000000
v 0.500000 -0.375075 0.030000
v -0.500000 -0.375075 -0.000000
v 0.500000 0.375075 0.030000
v 0.500000 -0.375075 -0.000000
v 0.500000 0.375075 0.000000
v 0.500000 -0.375075 0.030000
v -0.500000 -0.375075 0.030000
v -0.500000 0.375075 0.000000
v -0.500000 -0.375075 -0.000000
v -0.500000 0.375075 0.030000
v -0.500000 0.375075 0.000000
v 0.500000 0.375075 0.030000
v 0.500000 0.375075 0.000000
v -0.500000 0.375075 0.030000
vn 0.000000 -1.000000 0.000000
vn 1.000000 0.000000 0.000000
vn -1.000000 0.000000 0.000000
vn 0.000000 1.000000 0.000000
usemtl Metal_Seamed
s off
f 33//7 34//7 35//7
f 34//7 33//7 36//7
f 37//8 38//8 39//8
f 38//8 37//8 40//8
f 41//9 42//9 43//9
f 42//9 41//9 44//9
f 45//10 46//10 47//10
f 46//10 45//10 48//10
